<svg width="65" height="64" viewBox="0 0 65 64" fill="none" xmlns="http://www.w3.org/2000/svg">
<path d="M32.4996 62.2218C49.1908 62.2218 62.7218 48.6908 62.7218 31.9996C62.7218 15.3083 49.1908 1.77734 32.4996 1.77734C15.8083 1.77734 2.27734 15.3083 2.27734 31.9996C2.27734 48.6908 15.8083 62.2218 32.4996 62.2218Z" fill="#0E8345"/>
<path d="M32.5002 58.103C46.9169 58.103 58.6039 46.4159 58.6039 31.9992C58.6039 17.5825 46.9169 5.89551 32.5002 5.89551C18.0835 5.89551 6.39648 17.5825 6.39648 31.9992C6.39648 46.4159 18.0835 58.103 32.5002 58.103Z" fill="black"/>
<path d="M29.1817 41.5542L21.084 33.4565L23.9988 30.5417L29.1817 35.7246L41.005 23.9014L43.9198 26.8161L29.1817 41.5542Z" fill="white"/>
</svg>
